<svg width="32" height="32" viewBox="0 0 32 32" fill="none" xmlns="http://www.w3.org/2000/svg">
    <style>
    @media (prefers-color-scheme: dark) {
      .stroke {
          fill: #fff;
      }
    }
  </style>
    <path fill-rule="evenodd" clip-rule="evenodd" d="M15.2514 17.4873L12.6599 9.20007L5.97946 22.7998H12.6599L15.2514 17.4873Z" fill="#526CE2"/>
    <path class="stroke" fill-rule="evenodd" clip-rule="evenodd" d="M0.875529 15.9999C0.875529 7.66004 7.66031 0.875407 16.0003 0.875407C24.3399 0.875407 31.1248 7.66004 31.1248 15.9999C31.1248 24.3396 24.3399 31.1248 16.0003 31.1248C7.66031 31.1248 0.875529 24.3396 0.875529 15.9999ZM0 15.9998C0 24.8225 7.17755 32 16.0001 32C24.8223 32 32 24.8225 32 15.9998C32 7.17746 24.8223 0 16.0001 0C7.17755 0 0 7.17746 0 15.9998ZM19.341 9.20011H12.66L19.341 22.7999H26.0213L19.341 9.20011Z" fill="#363A53"/>
</svg>
